<svg xmlns="http://www.w3.org/2000/svg" width="22.338" height="19.912" viewBox="0 0 22.338 19.912"><defs><style>.a{fill:#242a4b;}</style></defs><g transform="translate(0 0)"><g transform="translate(0 0)"><path class="a" d="M22.1,35.662,11.511,27.91a.58.58,0,0,0-.686,0L.237,35.662a.58.58,0,1,0,.686.937l10.246-7.5,10.246,7.5a.58.58,0,0,0,.686-.937Z" transform="translate(0.001 -27.797)"/></g></g><g transform="translate(2.463 8.933)"><g transform="translate(0 0)"><path class="a" d="M73.284,232.543a.58.58,0,0,0-.58.58v9.238H68.06v-5.043a2.9,2.9,0,1,0-5.8,0v5.043H57.613v-9.238a.58.58,0,1,0-1.161,0v9.819a.58.58,0,0,0,.58.58h5.8a.58.58,0,0,0,.578-.535.435.435,0,0,0,0-.045v-5.623a1.741,1.741,0,1,1,3.483,0v5.623a.426.426,0,0,0,0,.045.58.58,0,0,0,.578.536h5.8a.58.58,0,0,0,.58-.58v-9.819A.58.58,0,0,0,73.284,232.543Z" transform="translate(-56.452 -232.543)"/></g></g></svg>