<svg xmlns="http://www.w3.org/2000/svg" width="20.539" height="24.136" viewBox="0 0 20.539 24.136"><defs><style>.a{fill:none;stroke:#2b335b;stroke-width:1.2px;}</style></defs><path class="a" d="M15.482.67a19.3,19.3,0,0,1,.894,4.96,3.866,3.866,0,0,1-4.122,3.855A4.1,4.1,0,0,1,7.868,5.63L7.9,5.258A13.062,13.062,0,0,0,4,14.446c0,4.568,4.327,8.267,9.669,8.267s9.669-3.7,9.669-8.267C23.339,8.875,20.208,3.9,15.482.67ZM13.319,19.613c-2.151,0-3.892-1.447-3.892-3.245,0-1.674,1.269-2.852,3.4-3.224a9.811,9.811,0,0,0,5.584-2.666,12.5,12.5,0,0,1,.713,4.175c0,2.739-2.6,4.96-5.8,4.96Z" transform="translate(-3.4 0.823)"/></svg>